<svg width="199" height="42" viewBox="0 0 199 42" fill="none" xmlns="http://www.w3.org/2000/svg">
	<path d="M47.9204 1.20368V31.1457L42.6448 32.0799L30.1059 10.1866H29.872V33.8957L23.8811 35.1063L24.7684 1.20368H29.3355L42.5966 20.4076H42.8443V1.20368H47.9204Z" fill="#21842B" />
	<path d="M53.4814 31.1457V0.770521H71.8049V5.04876H58.585V12.6973H70.8557V18.0485H58.585V25.9172L71.8049 25.0586L71.915 29.5489L53.4814 31.1457Z" fill="#21842B" />
	<path d="M77.0117 0.275124H83.2571L91.621 20.6896H91.9511L100.315 0.275124H106.56V28.4482H101.663V9.09297H101.402L93.6157 28.3657H89.9565L82.1704 9.0517H81.909V29.0535H77.0117V0.275124Z" fill="#21842B" />
	<path d="M115.884 28.4482V0.275124H131.181V4.55336H120.987V12.2019H129.943V16.4801H120.987V28.4482H115.884Z" fill="#E2E2E2" />
	<path d="M134.816 30.264V0.275124H139.92V27.1138L152.201 28.3657V32.6026L143.727 31.5131L134.816 30.264Z" fill="#E2E2E2" />
	<path d="M161.861 0.275124V34.501L156.758 33.645V0.275124H161.861Z" fill="#E2E2E2" />
	<path d="M171.652 0L177.856 10.3173H178.076L184.308 0H190.127L181.447 14.0865L198.947 42L195.263 40.5263L191.241 39.3158L178.076 17.9246H177.856L171.652 37.0047L166.205 36.1243L170.057 24.7615L174.596 14.0865L165.806 0H171.652Z" fill="#E2E2E2" />
	<path d="M0 39.9485V1.70472H18.3235V6.65809H5.10361L5.1174 16.9479H17.223V23.0007H5.10361V33.8957L18.4336 32.0799L18.4336 36.3169L15.4072 36.9221L11.7755 37.5274L5.72268 38.738L0 39.9485Z" fill="#21842B" />
</svg>
