<svg width="126" height="47" viewBox="0 0 126 47" fill="none" xmlns="http://www.w3.org/2000/svg">
	<rect x="23.5001" y="0.165466" width="4" height="33" transform="rotate(45 23.5001 0.165466)" fill="#00FF77" />
	<rect x="22.0859" y="4.40808" width="4" height="29" transform="rotate(-45 22.0859 4.40808)" fill="#00FF77" />
	<rect x="42.2355" y="21.1669" width="4" height="38.4372" transform="rotate(90 42.2355 21.1669)" fill="#00FF77" />
	<rect x="28.4498" y="30.571" width="4" height="8" transform="rotate(-45 28.4498 30.571)" fill="#00FF77" />
	<rect x="10.7722" y="12.8934" width="4" height="8" transform="rotate(-45 10.7722 12.8934)" fill="#00FF77" />
	<rect x="21.7241" y="26.2507" width="4" height="18.2169" fill="#00FF77" />
	<rect x="21.5001" y="2.16547" width="4" height="18" fill="#00FF77" />
	<rect x="1.57983" y="24.9142" width="3" height="28" transform="rotate(-45 1.57983 24.9142)" fill="#00FF77" />
	<rect x="44.0062" y="20.6716" width="4" height="33" transform="rotate(45 44.0062 20.6716)" fill="#00FF77" />
	<rect x="1.57983" y="24.9142" width="4" height="29" transform="rotate(-45 1.57983 24.9142)" fill="#00FF77" />
	<path d="M59.398 33.61V34.462H60.772V35.254H59.398V36.178H60.952V37H58.372V32.788H60.952V33.61H59.398ZM63.6581 33.616C64.0501 33.616 64.3621 33.744 64.5941 34C64.8301 34.252 64.9481 34.6 64.9481 35.044V37H63.9281V35.182C63.9281 34.958 63.8701 34.784 63.7541 34.66C63.6381 34.536 63.4821 34.474 63.2861 34.474C63.0901 34.474 62.9341 34.536 62.8181 34.66C62.7021 34.784 62.6441 34.958 62.6441 35.182V37H61.6181V33.652H62.6441V34.096C62.7481 33.948 62.8881 33.832 63.0641 33.748C63.2401 33.66 63.4381 33.616 63.6581 33.616ZM68.8171 35.272C68.8171 35.368 68.8111 35.468 68.7991 35.572H66.4771C66.4931 35.78 66.5591 35.94 66.6751 36.052C66.7951 36.16 66.9411 36.214 67.1131 36.214C67.3691 36.214 67.5471 36.106 67.6471 35.89H68.7391C68.6831 36.11 68.5811 36.308 68.4331 36.484C68.2891 36.66 68.1071 36.798 67.8871 36.898C67.6671 36.998 67.4211 37.048 67.1491 37.048C66.8211 37.048 66.5291 36.978 66.2731 36.838C66.0171 36.698 65.8171 36.498 65.6731 36.238C65.5291 35.978 65.4571 35.674 65.4571 35.326C65.4571 34.978 65.5271 34.674 65.6671 34.414C65.8111 34.154 66.0111 33.954 66.2671 33.814C66.5231 33.674 66.8171 33.604 67.1491 33.604C67.4731 33.604 67.7611 33.672 68.0131 33.808C68.2651 33.944 68.4611 34.138 68.6011 34.39C68.7451 34.642 68.8171 34.936 68.8171 35.272ZM67.7671 35.002C67.7671 34.826 67.7071 34.686 67.5871 34.582C67.4671 34.478 67.3171 34.426 67.1371 34.426C66.9651 34.426 66.8191 34.476 66.6991 34.576C66.5831 34.676 66.5111 34.818 66.4831 35.002H67.7671ZM73.6303 33.616C74.0463 33.616 74.3763 33.742 74.6203 33.994C74.8683 34.246 74.9923 34.596 74.9923 35.044V37H73.9723V35.182C73.9723 34.966 73.9143 34.8 73.7983 34.684C73.6863 34.564 73.5303 34.504 73.3303 34.504C73.1303 34.504 72.9723 34.564 72.8563 34.684C72.7443 34.8 72.6883 34.966 72.6883 35.182V37H71.6683V35.182C71.6683 34.966 71.6103 34.8 71.4943 34.684C71.3823 34.564 71.2263 34.504 71.0263 34.504C70.8263 34.504 70.6683 34.564 70.5523 34.684C70.4403 34.8 70.3843 34.966 70.3843 35.182V37H69.3583V33.652H70.3843V34.072C70.4883 33.932 70.6243 33.822 70.7923 33.742C70.9603 33.658 71.1503 33.616 71.3623 33.616C71.6143 33.616 71.8383 33.67 72.0343 33.778C72.2343 33.886 72.3903 34.04 72.5023 34.24C72.6183 34.056 72.7763 33.906 72.9763 33.79C73.1763 33.674 73.3943 33.616 73.6303 33.616ZM81.4089 35.272C81.4089 35.368 81.4029 35.468 81.3909 35.572H79.0689C79.0849 35.78 79.1509 35.94 79.2669 36.052C79.3869 36.16 79.5329 36.214 79.7049 36.214C79.9609 36.214 80.1389 36.106 80.2389 35.89H81.3309C81.2749 36.11 81.1729 36.308 81.0249 36.484C80.8809 36.66 80.6989 36.798 80.4789 36.898C80.2589 36.998 80.0129 37.048 79.7409 37.048C79.4129 37.048 79.1209 36.978 78.8649 36.838C78.6089 36.698 78.4089 36.498 78.2649 36.238C78.1209 35.978 78.0489 35.674 78.0489 35.326C78.0489 34.978 78.1189 34.674 78.2589 34.414C78.4029 34.154 78.6029 33.954 78.8589 33.814C79.1149 33.674 79.4089 33.604 79.7409 33.604C80.0649 33.604 80.3529 33.672 80.6049 33.808C80.8569 33.944 81.0529 34.138 81.1929 34.39C81.3369 34.642 81.4089 34.936 81.4089 35.272ZM80.3589 35.002C80.3589 34.826 80.2989 34.686 80.1789 34.582C80.0589 34.478 79.9089 34.426 79.7289 34.426C79.5569 34.426 79.4109 34.476 79.2909 34.576C79.1749 34.676 79.1029 34.818 79.0749 35.002H80.3589ZM84.7276 36.04L85.4536 33.652H86.5456L85.3576 37H84.0916L82.9036 33.652H84.0016L84.7276 36.04ZM90.1335 35.272C90.1335 35.368 90.1275 35.468 90.1155 35.572H87.7935C87.8095 35.78 87.8755 35.94 87.9915 36.052C88.1115 36.16 88.2575 36.214 88.4295 36.214C88.6855 36.214 88.8635 36.106 88.9635 35.89H90.0555C89.9995 36.11 89.8975 36.308 89.7495 36.484C89.6055 36.66 89.4235 36.798 89.2035 36.898C88.9835 36.998 88.7375 37.048 88.4655 37.048C88.1375 37.048 87.8455 36.978 87.5895 36.838C87.3335 36.698 87.1335 36.498 86.9895 36.238C86.8455 35.978 86.7735 35.674 86.7735 35.326C86.7735 34.978 86.8435 34.674 86.9835 34.414C87.1275 34.154 87.3275 33.954 87.5835 33.814C87.8395 33.674 88.1335 33.604 88.4655 33.604C88.7895 33.604 89.0775 33.672 89.3295 33.808C89.5815 33.944 89.7775 34.138 89.9175 34.39C90.0615 34.642 90.1335 34.936 90.1335 35.272ZM89.0835 35.002C89.0835 34.826 89.0235 34.686 88.9035 34.582C88.7835 34.478 88.6335 34.426 88.4535 34.426C88.2815 34.426 88.1355 34.476 88.0155 34.576C87.8995 34.676 87.8275 34.818 87.7995 35.002H89.0835ZM92.0367 37.048C91.7447 37.048 91.4847 36.998 91.2567 36.898C91.0287 36.798 90.8487 36.662 90.7167 36.49C90.5847 36.314 90.5107 36.118 90.4947 35.902H91.5087C91.5207 36.018 91.5747 36.112 91.6707 36.184C91.7667 36.256 91.8847 36.292 92.0247 36.292C92.1527 36.292 92.2507 36.268 92.3187 36.22C92.3907 36.168 92.4267 36.102 92.4267 36.022C92.4267 35.926 92.3767 35.856 92.2767 35.812C92.1767 35.764 92.0147 35.712 91.7907 35.656C91.5507 35.6 91.3507 35.542 91.1907 35.482C91.0307 35.418 90.8927 35.32 90.7767 35.188C90.6607 35.052 90.6027 34.87 90.6027 34.642C90.6027 34.45 90.6547 34.276 90.7587 34.12C90.8667 33.96 91.0227 33.834 91.2267 33.742C91.4347 33.65 91.6807 33.604 91.9647 33.604C92.3847 33.604 92.7147 33.708 92.9547 33.916C93.1987 34.124 93.3387 34.4 93.3747 34.744H92.4267C92.4107 34.628 92.3587 34.536 92.2707 34.468C92.1867 34.4 92.0747 34.366 91.9347 34.366C91.8147 34.366 91.7227 34.39 91.6587 34.438C91.5947 34.482 91.5627 34.544 91.5627 34.624C91.5627 34.72 91.6127 34.792 91.7127 34.84C91.8167 34.888 91.9767 34.936 92.1927 34.984C92.4407 35.048 92.6427 35.112 92.7987 35.176C92.9547 35.236 93.0907 35.336 93.2067 35.476C93.3267 35.612 93.3887 35.796 93.3927 36.028C93.3927 36.224 93.3367 36.4 93.2247 36.556C93.1167 36.708 92.9587 36.828 92.7507 36.916C92.5467 37.004 92.3087 37.048 92.0367 37.048ZM95.8864 36.13V37H95.3644C94.9924 37 94.7024 36.91 94.4944 36.73C94.2864 36.546 94.1824 36.248 94.1824 35.836V34.504H93.7744V33.652H94.1824V32.836H95.2084V33.652H95.8804V34.504H95.2084V35.848C95.2084 35.948 95.2324 36.02 95.2804 36.064C95.3284 36.108 95.4084 36.13 95.5204 36.13H95.8864ZM96.9739 33.304C96.7939 33.304 96.6459 33.252 96.5299 33.148C96.4179 33.04 96.3619 32.908 96.3619 32.752C96.3619 32.592 96.4179 32.46 96.5299 32.356C96.6459 32.248 96.7939 32.194 96.9739 32.194C97.1499 32.194 97.2939 32.248 97.4059 32.356C97.5219 32.46 97.5799 32.592 97.5799 32.752C97.5799 32.908 97.5219 33.04 97.4059 33.148C97.2939 33.252 97.1499 33.304 96.9739 33.304ZM97.4839 33.652V37H96.4579V33.652H97.4839ZM99.2535 34.126C99.3495 33.97 99.4875 33.844 99.6675 33.748C99.8475 33.652 100.053 33.604 100.285 33.604C100.561 33.604 100.811 33.674 101.035 33.814C101.259 33.954 101.435 34.154 101.563 34.414C101.695 34.674 101.761 34.976 101.761 35.32C101.761 35.664 101.695 35.968 101.563 36.232C101.435 36.492 101.259 36.694 101.035 36.838C100.811 36.978 100.561 37.048 100.285 37.048C100.049 37.048 99.8435 37.002 99.6675 36.91C99.4915 36.814 99.3535 36.688 99.2535 36.532V37H98.2275V32.56H99.2535V34.126ZM100.717 35.32C100.717 35.064 100.645 34.864 100.501 34.72C100.361 34.572 100.187 34.498 99.9795 34.498C99.7755 34.498 99.6015 34.572 99.4575 34.72C99.3175 34.868 99.2475 35.07 99.2475 35.326C99.2475 35.582 99.3175 35.784 99.4575 35.932C99.6015 36.08 99.7755 36.154 99.9795 36.154C100.183 36.154 100.357 36.08 100.501 35.932C100.645 35.78 100.717 35.576 100.717 35.32ZM105.606 33.652V37H104.58V36.544C104.476 36.692 104.334 36.812 104.154 36.904C103.978 36.992 103.782 37.036 103.566 37.036C103.31 37.036 103.084 36.98 102.888 36.868C102.692 36.752 102.54 36.586 102.432 36.37C102.324 36.154 102.27 35.9 102.27 35.608V33.652H103.29V35.47C103.29 35.694 103.348 35.868 103.464 35.992C103.58 36.116 103.736 36.178 103.932 36.178C104.132 36.178 104.29 36.116 104.406 35.992C104.522 35.868 104.58 35.694 104.58 35.47V33.652H105.606ZM107.369 32.56V37H106.343V32.56H107.369ZM107.908 35.32C107.908 34.976 107.972 34.674 108.1 34.414C108.232 34.154 108.41 33.954 108.634 33.814C108.858 33.674 109.108 33.604 109.384 33.604C109.62 33.604 109.826 33.652 110.002 33.748C110.182 33.844 110.32 33.97 110.416 34.126V33.652H111.442V37H110.416V36.526C110.316 36.682 110.176 36.808 109.996 36.904C109.82 37 109.614 37.048 109.378 37.048C109.106 37.048 108.858 36.978 108.634 36.838C108.41 36.694 108.232 36.492 108.1 36.232C107.972 35.968 107.908 35.664 107.908 35.32ZM110.416 35.326C110.416 35.07 110.344 34.868 110.2 34.72C110.06 34.572 109.888 34.498 109.684 34.498C109.48 34.498 109.306 34.572 109.162 34.72C109.022 34.864 108.952 35.064 108.952 35.32C108.952 35.576 109.022 35.78 109.162 35.932C109.306 36.08 109.48 36.154 109.684 36.154C109.888 36.154 110.06 36.08 110.2 35.932C110.344 35.784 110.416 35.582 110.416 35.326ZM113.211 34.21C113.331 34.026 113.481 33.882 113.661 33.778C113.841 33.67 114.041 33.616 114.261 33.616V34.702H113.979C113.723 34.702 113.531 34.758 113.403 34.87C113.275 34.978 113.211 35.17 113.211 35.446V37H112.185V33.652H113.211V34.21Z" fill="#00FF77" />
	<path d="M56.736 12.591V17.487H62.496V19.719H56.736V25.5799L63.216 24.831V27.2148L58 27.859L54 28.359V10.359H63.216V12.591H56.736Z" fill="white" />
	<path d="M80.9619 10L74.6979 26.68L71.5 26.976L65.2419 10H68.1699L73.1139 23.872L78.0819 10H80.9619Z" fill="white" />
	<path d="M93.316 10V12.232H86.236V17.152H91.756V19.384H86.236V26.3919H83.5V10H93.316Z" fill="#00FF77" />
	<path d="M98 24.472H103.662V26.7576L95.264 26.3919V10H98V24.472Z" fill="#00FF77" />
	<path d="M108.5 10V27L105.764 26.8806V10H108.5Z" fill="#00FF77" />
	<path d="M119.707 18.352L125.458 28.476L122.458 27.976L118.051 20.632L114.458 27.276L111.458 26.976L116.66 18.352L111.451 10H114.523L118.315 16.096L121.868 10H124.915L119.707 18.352Z" fill="#00FF77" />
</svg>
