<svg width="134" height="61" viewBox="0 0 134 61" fill="none" xmlns="http://www.w3.org/2000/svg">
	<rect x="23.5001" y="14.1655" width="4" height="33" transform="rotate(45 23.5001 14.1655)" fill="#00FF77" />
	<rect x="22.0859" y="18.4081" width="4" height="29" transform="rotate(-45 22.0859 18.4081)" fill="#00FF77" />
	<rect x="42.2355" y="35.1669" width="4" height="38.4372" transform="rotate(90 42.2355 35.1669)" fill="#00FF77" />
	<rect x="28.4498" y="44.571" width="4" height="8" transform="rotate(-45 28.4498 44.571)" fill="#00FF77" />
	<rect x="10.7722" y="26.8934" width="4" height="8" transform="rotate(-45 10.7722 26.8934)" fill="#00FF77" />
	<rect x="21.7241" y="40.2507" width="4" height="18.2169" fill="#00FF77" />
	<rect x="21.5001" y="16.1655" width="4" height="18" fill="#00FF77" />
	<rect x="1.57983" y="38.9142" width="3" height="28" transform="rotate(-45 1.57983 38.9142)" fill="#00FF77" />
	<rect x="44.0062" y="34.6716" width="4" height="33" transform="rotate(45 44.0062 34.6716)" fill="#00FF77" />
	<rect x="1.57983" y="38.9142" width="4" height="29" transform="rotate(-45 1.57983 38.9142)" fill="#00FF77" />
	<path d="M55.398 47.61V48.462H56.772V49.254H55.398V50.178H56.952V51H54.372V46.788H56.952V47.61H55.398ZM59.6581 47.616C60.0501 47.616 60.3621 47.744 60.5941 48C60.8301 48.252 60.9481 48.6 60.9481 49.044V51H59.9281V49.182C59.9281 48.958 59.8701 48.784 59.7541 48.66C59.6381 48.536 59.4821 48.474 59.2861 48.474C59.0901 48.474 58.9341 48.536 58.8181 48.66C58.7021 48.784 58.6441 48.958 58.6441 49.182V51H57.6181V47.652H58.6441V48.096C58.7481 47.948 58.8881 47.832 59.0641 47.748C59.2401 47.66 59.4381 47.616 59.6581 47.616ZM64.8171 49.272C64.8171 49.368 64.8111 49.468 64.7991 49.572H62.4771C62.4931 49.78 62.5591 49.94 62.6751 50.052C62.7951 50.16 62.9411 50.214 63.1131 50.214C63.3691 50.214 63.5471 50.106 63.6471 49.89H64.7391C64.6831 50.11 64.5811 50.308 64.4331 50.484C64.2891 50.66 64.1071 50.798 63.8871 50.898C63.6671 50.998 63.4211 51.048 63.1491 51.048C62.8211 51.048 62.5291 50.978 62.2731 50.838C62.0171 50.698 61.8171 50.498 61.6731 50.238C61.5291 49.978 61.4571 49.674 61.4571 49.326C61.4571 48.978 61.5271 48.674 61.6671 48.414C61.8111 48.154 62.0111 47.954 62.2671 47.814C62.5231 47.674 62.8171 47.604 63.1491 47.604C63.4731 47.604 63.7611 47.672 64.0131 47.808C64.2651 47.944 64.4611 48.138 64.6011 48.39C64.7451 48.642 64.8171 48.936 64.8171 49.272ZM63.7671 49.002C63.7671 48.826 63.7071 48.686 63.5871 48.582C63.4671 48.478 63.3171 48.426 63.1371 48.426C62.9651 48.426 62.8191 48.476 62.6991 48.576C62.5831 48.676 62.5111 48.818 62.4831 49.002H63.7671ZM69.6303 47.616C70.0463 47.616 70.3763 47.742 70.6203 47.994C70.8683 48.246 70.9923 48.596 70.9923 49.044V51H69.9723V49.182C69.9723 48.966 69.9143 48.8 69.7983 48.684C69.6863 48.564 69.5303 48.504 69.3303 48.504C69.1303 48.504 68.9723 48.564 68.8563 48.684C68.7443 48.8 68.6883 48.966 68.6883 49.182V51H67.6683V49.182C67.6683 48.966 67.6103 48.8 67.4943 48.684C67.3823 48.564 67.2263 48.504 67.0263 48.504C66.8263 48.504 66.6683 48.564 66.5523 48.684C66.4403 48.8 66.3843 48.966 66.3843 49.182V51H65.3583V47.652H66.3843V48.072C66.4883 47.932 66.6243 47.822 66.7923 47.742C66.9603 47.658 67.1503 47.616 67.3623 47.616C67.6143 47.616 67.8383 47.67 68.0343 47.778C68.2343 47.886 68.3903 48.04 68.5023 48.24C68.6183 48.056 68.7763 47.906 68.9763 47.79C69.1763 47.674 69.3943 47.616 69.6303 47.616ZM77.4089 49.272C77.4089 49.368 77.4029 49.468 77.3909 49.572H75.0689C75.0849 49.78 75.1509 49.94 75.2669 50.052C75.3869 50.16 75.5329 50.214 75.7049 50.214C75.9609 50.214 76.1389 50.106 76.2389 49.89H77.3309C77.2749 50.11 77.1729 50.308 77.0249 50.484C76.8809 50.66 76.6989 50.798 76.4789 50.898C76.2589 50.998 76.0129 51.048 75.7409 51.048C75.4129 51.048 75.1209 50.978 74.8649 50.838C74.6089 50.698 74.4089 50.498 74.2649 50.238C74.1209 49.978 74.0489 49.674 74.0489 49.326C74.0489 48.978 74.1189 48.674 74.2589 48.414C74.4029 48.154 74.6029 47.954 74.8589 47.814C75.1149 47.674 75.4089 47.604 75.7409 47.604C76.0649 47.604 76.3529 47.672 76.6049 47.808C76.8569 47.944 77.0529 48.138 77.1929 48.39C77.3369 48.642 77.4089 48.936 77.4089 49.272ZM76.3589 49.002C76.3589 48.826 76.2989 48.686 76.1789 48.582C76.0589 48.478 75.9089 48.426 75.7289 48.426C75.5569 48.426 75.4109 48.476 75.2909 48.576C75.1749 48.676 75.1029 48.818 75.0749 49.002H76.3589ZM80.7276 50.04L81.4536 47.652H82.5456L81.3576 51H80.0916L78.9036 47.652H80.0016L80.7276 50.04ZM86.1335 49.272C86.1335 49.368 86.1275 49.468 86.1155 49.572H83.7935C83.8095 49.78 83.8755 49.94 83.9915 50.052C84.1115 50.16 84.2575 50.214 84.4295 50.214C84.6855 50.214 84.8635 50.106 84.9635 49.89H86.0555C85.9995 50.11 85.8975 50.308 85.7495 50.484C85.6055 50.66 85.4235 50.798 85.2035 50.898C84.9835 50.998 84.7375 51.048 84.4655 51.048C84.1375 51.048 83.8455 50.978 83.5895 50.838C83.3335 50.698 83.1335 50.498 82.9895 50.238C82.8455 49.978 82.7735 49.674 82.7735 49.326C82.7735 48.978 82.8435 48.674 82.9835 48.414C83.1275 48.154 83.3275 47.954 83.5835 47.814C83.8395 47.674 84.1335 47.604 84.4655 47.604C84.7895 47.604 85.0775 47.672 85.3295 47.808C85.5815 47.944 85.7775 48.138 85.9175 48.39C86.0615 48.642 86.1335 48.936 86.1335 49.272ZM85.0835 49.002C85.0835 48.826 85.0235 48.686 84.9035 48.582C84.7835 48.478 84.6335 48.426 84.4535 48.426C84.2815 48.426 84.1355 48.476 84.0155 48.576C83.8995 48.676 83.8275 48.818 83.7995 49.002H85.0835ZM88.0367 51.048C87.7447 51.048 87.4847 50.998 87.2567 50.898C87.0287 50.798 86.8487 50.662 86.7167 50.49C86.5847 50.314 86.5107 50.118 86.4947 49.902H87.5087C87.5207 50.018 87.5747 50.112 87.6707 50.184C87.7667 50.256 87.8847 50.292 88.0247 50.292C88.1527 50.292 88.2507 50.268 88.3187 50.22C88.3907 50.168 88.4267 50.102 88.4267 50.022C88.4267 49.926 88.3767 49.856 88.2767 49.812C88.1767 49.764 88.0147 49.712 87.7907 49.656C87.5507 49.6 87.3507 49.542 87.1907 49.482C87.0307 49.418 86.8927 49.32 86.7767 49.188C86.6607 49.052 86.6027 48.87 86.6027 48.642C86.6027 48.45 86.6547 48.276 86.7587 48.12C86.8667 47.96 87.0227 47.834 87.2267 47.742C87.4347 47.65 87.6807 47.604 87.9647 47.604C88.3847 47.604 88.7147 47.708 88.9547 47.916C89.1987 48.124 89.3387 48.4 89.3747 48.744H88.4267C88.4107 48.628 88.3587 48.536 88.2707 48.468C88.1867 48.4 88.0747 48.366 87.9347 48.366C87.8147 48.366 87.7227 48.39 87.6587 48.438C87.5947 48.482 87.5627 48.544 87.5627 48.624C87.5627 48.72 87.6127 48.792 87.7127 48.84C87.8167 48.888 87.9767 48.936 88.1927 48.984C88.4407 49.048 88.6427 49.112 88.7987 49.176C88.9547 49.236 89.0907 49.336 89.2067 49.476C89.3267 49.612 89.3887 49.796 89.3927 50.028C89.3927 50.224 89.3367 50.4 89.2247 50.556C89.1167 50.708 88.9587 50.828 88.7507 50.916C88.5467 51.004 88.3087 51.048 88.0367 51.048ZM91.8864 50.13V51H91.3644C90.9924 51 90.7024 50.91 90.4944 50.73C90.2864 50.546 90.1824 50.248 90.1824 49.836V48.504H89.7744V47.652H90.1824V46.836H91.2084V47.652H91.8804V48.504H91.2084V49.848C91.2084 49.948 91.2324 50.02 91.2804 50.064C91.3284 50.108 91.4084 50.13 91.5204 50.13H91.8864ZM92.9739 47.304C92.7939 47.304 92.6459 47.252 92.5299 47.148C92.4179 47.04 92.3619 46.908 92.3619 46.752C92.3619 46.592 92.4179 46.46 92.5299 46.356C92.6459 46.248 92.7939 46.194 92.9739 46.194C93.1499 46.194 93.2939 46.248 93.4059 46.356C93.5219 46.46 93.5799 46.592 93.5799 46.752C93.5799 46.908 93.5219 47.04 93.4059 47.148C93.2939 47.252 93.1499 47.304 92.9739 47.304ZM93.4839 47.652V51H92.4579V47.652H93.4839ZM95.2535 48.126C95.3495 47.97 95.4875 47.844 95.6675 47.748C95.8475 47.652 96.0535 47.604 96.2855 47.604C96.5615 47.604 96.8115 47.674 97.0355 47.814C97.2595 47.954 97.4355 48.154 97.5635 48.414C97.6955 48.674 97.7615 48.976 97.7615 49.32C97.7615 49.664 97.6955 49.968 97.5635 50.232C97.4355 50.492 97.2595 50.694 97.0355 50.838C96.8115 50.978 96.5615 51.048 96.2855 51.048C96.0495 51.048 95.8435 51.002 95.6675 50.91C95.4915 50.814 95.3535 50.688 95.2535 50.532V51H94.2275V46.56H95.2535V48.126ZM96.7175 49.32C96.7175 49.064 96.6455 48.864 96.5015 48.72C96.3615 48.572 96.1875 48.498 95.9795 48.498C95.7755 48.498 95.6015 48.572 95.4575 48.72C95.3175 48.868 95.2475 49.07 95.2475 49.326C95.2475 49.582 95.3175 49.784 95.4575 49.932C95.6015 50.08 95.7755 50.154 95.9795 50.154C96.1835 50.154 96.3575 50.08 96.5015 49.932C96.6455 49.78 96.7175 49.576 96.7175 49.32ZM101.606 47.652V51H100.58V50.544C100.476 50.692 100.334 50.812 100.154 50.904C99.9777 50.992 99.7817 51.036 99.5657 51.036C99.3097 51.036 99.0837 50.98 98.8877 50.868C98.6917 50.752 98.5397 50.586 98.4317 50.37C98.3237 50.154 98.2697 49.9 98.2697 49.608V47.652H99.2897V49.47C99.2897 49.694 99.3477 49.868 99.4637 49.992C99.5797 50.116 99.7357 50.178 99.9317 50.178C100.132 50.178 100.29 50.116 100.406 49.992C100.522 49.868 100.58 49.694 100.58 49.47V47.652H101.606ZM103.369 46.56V51H102.343V46.56H103.369ZM103.908 49.32C103.908 48.976 103.972 48.674 104.1 48.414C104.232 48.154 104.41 47.954 104.634 47.814C104.858 47.674 105.108 47.604 105.384 47.604C105.62 47.604 105.826 47.652 106.002 47.748C106.182 47.844 106.32 47.97 106.416 48.126V47.652H107.442V51H106.416V50.526C106.316 50.682 106.176 50.808 105.996 50.904C105.82 51 105.614 51.048 105.378 51.048C105.106 51.048 104.858 50.978 104.634 50.838C104.41 50.694 104.232 50.492 104.1 50.232C103.972 49.968 103.908 49.664 103.908 49.32ZM106.416 49.326C106.416 49.07 106.344 48.868 106.2 48.72C106.06 48.572 105.888 48.498 105.684 48.498C105.48 48.498 105.306 48.572 105.162 48.72C105.022 48.864 104.952 49.064 104.952 49.32C104.952 49.576 105.022 49.78 105.162 49.932C105.306 50.08 105.48 50.154 105.684 50.154C105.888 50.154 106.06 50.08 106.2 49.932C106.344 49.784 106.416 49.582 106.416 49.326ZM109.211 48.21C109.331 48.026 109.481 47.882 109.661 47.778C109.841 47.67 110.041 47.616 110.261 47.616V48.702H109.979C109.723 48.702 109.531 48.758 109.403 48.87C109.275 48.978 109.211 49.17 109.211 49.446V51H108.185V47.652H109.211V48.21Z" fill="#00FF77" />
	<path d="M60 40H57.1546L51.0619 24.8763H53.9381L58.5773 36.1649L63.2474 24.8763H66.0928L60 40ZM78.8888 24.8763V27.2577H70.8166V31.2784H78.0537V33.5361H70.8166V37.5876H79.1362V40H68.2496V24.8763H78.8888ZM84.967 27.2577V31.4021H91.6783V33.7526H84.967V40H82.4V24.8763H92.4824L92.4515 27.2577H84.967ZM95.4957 40V24.8763H98.0627V37.5876H104.96V40H95.4957ZM107.742 24.8763H110.309V40H107.742V24.8763ZM123.449 40L119.707 34.3093H119.614L115.872 40H112.717L117.913 32.2371L113.057 24.8763H116.243L119.614 29.9794H119.707L123.109 24.8763H126.264L121.439 32.2371L126.635 40H123.449Z" fill="white" />
</svg>
