<svg width="138" height="47" viewBox="0 0 138 47" fill="none" xmlns="http://www.w3.org/2000/svg">
	<rect x="23.5001" y="0.165466" width="4" height="33" transform="rotate(45 23.5001 0.165466)" fill="#00FF77" />
	<rect x="22.0859" y="4.40808" width="4" height="29" transform="rotate(-45 22.0859 4.40808)" fill="#00FF77" />
	<rect x="42.2355" y="21.1669" width="4" height="38.4372" transform="rotate(90 42.2355 21.1669)" fill="#00FF77" />
	<rect x="28.4498" y="30.571" width="4" height="8" transform="rotate(-45 28.4498 30.571)" fill="#00FF77" />
	<rect x="10.7722" y="12.8934" width="4" height="8" transform="rotate(-45 10.7722 12.8934)" fill="#00FF77" />
	<rect x="21.5" y="26" width="4" height="18.2169" fill="#00FF77" />
	<rect x="21.5001" y="2.16547" width="4" height="18" fill="#00FF77" />
	<rect x="1.57983" y="24.9142" width="3" height="28" transform="rotate(-45 1.57983 24.9142)" fill="#00FF77" />
	<rect x="44.0062" y="20.6716" width="4" height="33" transform="rotate(45 44.0062 20.6716)" fill="#00FF77" />
	<rect x="1.57983" y="24.9142" width="4" height="29" transform="rotate(-45 1.57983 24.9142)" fill="#00FF77" />
	<path d="M54.398 34.61V35.462H55.772V36.254H54.398V37.178H55.952V38H53.372V33.788H55.952V34.61H54.398ZM58.6581 34.616C59.0501 34.616 59.3621 34.744 59.5941 35C59.8301 35.252 59.9481 35.6 59.9481 36.044V38H58.9281V36.182C58.9281 35.958 58.8701 35.784 58.7541 35.66C58.6381 35.536 58.4821 35.474 58.2861 35.474C58.0901 35.474 57.9341 35.536 57.8181 35.66C57.7021 35.784 57.6441 35.958 57.6441 36.182V38H56.6181V34.652H57.6441V35.096C57.7481 34.948 57.8881 34.832 58.0641 34.748C58.2401 34.66 58.4381 34.616 58.6581 34.616ZM63.8171 36.272C63.8171 36.368 63.8111 36.468 63.7991 36.572H61.4771C61.4931 36.78 61.5591 36.94 61.6751 37.052C61.7951 37.16 61.9411 37.214 62.1131 37.214C62.3691 37.214 62.5471 37.106 62.6471 36.89H63.7391C63.6831 37.11 63.5811 37.308 63.4331 37.484C63.2891 37.66 63.1071 37.798 62.8871 37.898C62.6671 37.998 62.4211 38.048 62.1491 38.048C61.8211 38.048 61.5291 37.978 61.2731 37.838C61.0171 37.698 60.8171 37.498 60.6731 37.238C60.5291 36.978 60.4571 36.674 60.4571 36.326C60.4571 35.978 60.5271 35.674 60.6671 35.414C60.8111 35.154 61.0111 34.954 61.2671 34.814C61.5231 34.674 61.8171 34.604 62.1491 34.604C62.4731 34.604 62.7611 34.672 63.0131 34.808C63.2651 34.944 63.4611 35.138 63.6011 35.39C63.7451 35.642 63.8171 35.936 63.8171 36.272ZM62.7671 36.002C62.7671 35.826 62.7071 35.686 62.5871 35.582C62.4671 35.478 62.3171 35.426 62.1371 35.426C61.9651 35.426 61.8191 35.476 61.6991 35.576C61.5831 35.676 61.5111 35.818 61.4831 36.002H62.7671ZM68.6303 34.616C69.0463 34.616 69.3763 34.742 69.6203 34.994C69.8683 35.246 69.9923 35.596 69.9923 36.044V38H68.9723V36.182C68.9723 35.966 68.9143 35.8 68.7983 35.684C68.6863 35.564 68.5303 35.504 68.3303 35.504C68.1303 35.504 67.9723 35.564 67.8563 35.684C67.7443 35.8 67.6883 35.966 67.6883 36.182V38H66.6683V36.182C66.6683 35.966 66.6103 35.8 66.4943 35.684C66.3823 35.564 66.2263 35.504 66.0263 35.504C65.8263 35.504 65.6683 35.564 65.5523 35.684C65.4403 35.8 65.3843 35.966 65.3843 36.182V38H64.3583V34.652H65.3843V35.072C65.4883 34.932 65.6243 34.822 65.7923 34.742C65.9603 34.658 66.1503 34.616 66.3623 34.616C66.6143 34.616 66.8383 34.67 67.0343 34.778C67.2343 34.886 67.3903 35.04 67.5023 35.24C67.6183 35.056 67.7763 34.906 67.9763 34.79C68.1763 34.674 68.3943 34.616 68.6303 34.616ZM76.4089 36.272C76.4089 36.368 76.4029 36.468 76.3909 36.572H74.0689C74.0849 36.78 74.1509 36.94 74.2669 37.052C74.3869 37.16 74.5329 37.214 74.7049 37.214C74.9609 37.214 75.1389 37.106 75.2389 36.89H76.3309C76.2749 37.11 76.1729 37.308 76.0249 37.484C75.8809 37.66 75.6989 37.798 75.4789 37.898C75.2589 37.998 75.0129 38.048 74.7409 38.048C74.4129 38.048 74.1209 37.978 73.8649 37.838C73.6089 37.698 73.4089 37.498 73.2649 37.238C73.1209 36.978 73.0489 36.674 73.0489 36.326C73.0489 35.978 73.1189 35.674 73.2589 35.414C73.4029 35.154 73.6029 34.954 73.8589 34.814C74.1149 34.674 74.4089 34.604 74.7409 34.604C75.0649 34.604 75.3529 34.672 75.6049 34.808C75.8569 34.944 76.0529 35.138 76.1929 35.39C76.3369 35.642 76.4089 35.936 76.4089 36.272ZM75.3589 36.002C75.3589 35.826 75.2989 35.686 75.1789 35.582C75.0589 35.478 74.9089 35.426 74.7289 35.426C74.5569 35.426 74.4109 35.476 74.2909 35.576C74.1749 35.676 74.1029 35.818 74.0749 36.002H75.3589ZM79.7276 37.04L80.4536 34.652H81.5456L80.3576 38H79.0916L77.9036 34.652H79.0016L79.7276 37.04ZM85.1335 36.272C85.1335 36.368 85.1275 36.468 85.1155 36.572H82.7935C82.8095 36.78 82.8755 36.94 82.9915 37.052C83.1115 37.16 83.2575 37.214 83.4295 37.214C83.6855 37.214 83.8635 37.106 83.9635 36.89H85.0555C84.9995 37.11 84.8975 37.308 84.7495 37.484C84.6055 37.66 84.4235 37.798 84.2035 37.898C83.9835 37.998 83.7375 38.048 83.4655 38.048C83.1375 38.048 82.8455 37.978 82.5895 37.838C82.3335 37.698 82.1335 37.498 81.9895 37.238C81.8455 36.978 81.7735 36.674 81.7735 36.326C81.7735 35.978 81.8435 35.674 81.9835 35.414C82.1275 35.154 82.3275 34.954 82.5835 34.814C82.8395 34.674 83.1335 34.604 83.4655 34.604C83.7895 34.604 84.0775 34.672 84.3295 34.808C84.5815 34.944 84.7775 35.138 84.9175 35.39C85.0615 35.642 85.1335 35.936 85.1335 36.272ZM84.0835 36.002C84.0835 35.826 84.0235 35.686 83.9035 35.582C83.7835 35.478 83.6335 35.426 83.4535 35.426C83.2815 35.426 83.1355 35.476 83.0155 35.576C82.8995 35.676 82.8275 35.818 82.7995 36.002H84.0835ZM87.0367 38.048C86.7447 38.048 86.4847 37.998 86.2567 37.898C86.0287 37.798 85.8487 37.662 85.7167 37.49C85.5847 37.314 85.5107 37.118 85.4947 36.902H86.5087C86.5207 37.018 86.5747 37.112 86.6707 37.184C86.7667 37.256 86.8847 37.292 87.0247 37.292C87.1527 37.292 87.2507 37.268 87.3187 37.22C87.3907 37.168 87.4267 37.102 87.4267 37.022C87.4267 36.926 87.3767 36.856 87.2767 36.812C87.1767 36.764 87.0147 36.712 86.7907 36.656C86.5507 36.6 86.3507 36.542 86.1907 36.482C86.0307 36.418 85.8927 36.32 85.7767 36.188C85.6607 36.052 85.6027 35.87 85.6027 35.642C85.6027 35.45 85.6547 35.276 85.7587 35.12C85.8667 34.96 86.0227 34.834 86.2267 34.742C86.4347 34.65 86.6807 34.604 86.9647 34.604C87.3847 34.604 87.7147 34.708 87.9547 34.916C88.1987 35.124 88.3387 35.4 88.3747 35.744H87.4267C87.4107 35.628 87.3587 35.536 87.2707 35.468C87.1867 35.4 87.0747 35.366 86.9347 35.366C86.8147 35.366 86.7227 35.39 86.6587 35.438C86.5947 35.482 86.5627 35.544 86.5627 35.624C86.5627 35.72 86.6127 35.792 86.7127 35.84C86.8167 35.888 86.9767 35.936 87.1927 35.984C87.4407 36.048 87.6427 36.112 87.7987 36.176C87.9547 36.236 88.0907 36.336 88.2067 36.476C88.3267 36.612 88.3887 36.796 88.3927 37.028C88.3927 37.224 88.3367 37.4 88.2247 37.556C88.1167 37.708 87.9587 37.828 87.7507 37.916C87.5467 38.004 87.3087 38.048 87.0367 38.048ZM90.8864 37.13V38H90.3644C89.9924 38 89.7024 37.91 89.4944 37.73C89.2864 37.546 89.1824 37.248 89.1824 36.836V35.504H88.7744V34.652H89.1824V33.836H90.2084V34.652H90.8804V35.504H90.2084V36.848C90.2084 36.948 90.2324 37.02 90.2804 37.064C90.3284 37.108 90.4084 37.13 90.5204 37.13H90.8864ZM91.9739 34.304C91.7939 34.304 91.6459 34.252 91.5299 34.148C91.4179 34.04 91.3619 33.908 91.3619 33.752C91.3619 33.592 91.4179 33.46 91.5299 33.356C91.6459 33.248 91.7939 33.194 91.9739 33.194C92.1499 33.194 92.2939 33.248 92.4059 33.356C92.5219 33.46 92.5799 33.592 92.5799 33.752C92.5799 33.908 92.5219 34.04 92.4059 34.148C92.2939 34.252 92.1499 34.304 91.9739 34.304ZM92.4839 34.652V38H91.4579V34.652H92.4839ZM94.2535 35.126C94.3495 34.97 94.4875 34.844 94.6675 34.748C94.8475 34.652 95.0535 34.604 95.2855 34.604C95.5615 34.604 95.8115 34.674 96.0355 34.814C96.2595 34.954 96.4355 35.154 96.5635 35.414C96.6955 35.674 96.7615 35.976 96.7615 36.32C96.7615 36.664 96.6955 36.968 96.5635 37.232C96.4355 37.492 96.2595 37.694 96.0355 37.838C95.8115 37.978 95.5615 38.048 95.2855 38.048C95.0495 38.048 94.8435 38.002 94.6675 37.91C94.4915 37.814 94.3535 37.688 94.2535 37.532V38H93.2275V33.56H94.2535V35.126ZM95.7175 36.32C95.7175 36.064 95.6455 35.864 95.5015 35.72C95.3615 35.572 95.1875 35.498 94.9795 35.498C94.7755 35.498 94.6015 35.572 94.4575 35.72C94.3175 35.868 94.2475 36.07 94.2475 36.326C94.2475 36.582 94.3175 36.784 94.4575 36.932C94.6015 37.08 94.7755 37.154 94.9795 37.154C95.1835 37.154 95.3575 37.08 95.5015 36.932C95.6455 36.78 95.7175 36.576 95.7175 36.32ZM100.606 34.652V38H99.5797V37.544C99.4757 37.692 99.3337 37.812 99.1537 37.904C98.9777 37.992 98.7817 38.036 98.5657 38.036C98.3097 38.036 98.0837 37.98 97.8877 37.868C97.6917 37.752 97.5397 37.586 97.4317 37.37C97.3237 37.154 97.2697 36.9 97.2697 36.608V34.652H98.2897V36.47C98.2897 36.694 98.3477 36.868 98.4637 36.992C98.5797 37.116 98.7357 37.178 98.9317 37.178C99.1317 37.178 99.2897 37.116 99.4057 36.992C99.5217 36.868 99.5797 36.694 99.5797 36.47V34.652H100.606ZM102.369 33.56V38H101.343V33.56H102.369ZM102.908 36.32C102.908 35.976 102.972 35.674 103.1 35.414C103.232 35.154 103.41 34.954 103.634 34.814C103.858 34.674 104.108 34.604 104.384 34.604C104.62 34.604 104.826 34.652 105.002 34.748C105.182 34.844 105.32 34.97 105.416 35.126V34.652H106.442V38H105.416V37.526C105.316 37.682 105.176 37.808 104.996 37.904C104.82 38 104.614 38.048 104.378 38.048C104.106 38.048 103.858 37.978 103.634 37.838C103.41 37.694 103.232 37.492 103.1 37.232C102.972 36.968 102.908 36.664 102.908 36.32ZM105.416 36.326C105.416 36.07 105.344 35.868 105.2 35.72C105.06 35.572 104.888 35.498 104.684 35.498C104.48 35.498 104.306 35.572 104.162 35.72C104.022 35.864 103.952 36.064 103.952 36.32C103.952 36.576 104.022 36.78 104.162 36.932C104.306 37.08 104.48 37.154 104.684 37.154C104.888 37.154 105.06 37.08 105.2 36.932C105.344 36.784 105.416 36.582 105.416 36.326ZM108.211 35.21C108.331 35.026 108.481 34.882 108.661 34.778C108.841 34.67 109.041 34.616 109.261 34.616V35.702H108.979C108.723 35.702 108.531 35.758 108.403 35.87C108.275 35.978 108.211 36.17 108.211 36.446V38H107.185V34.652H108.211V35.21Z" fill="#00FF77" />
	<path d="M82 27.4167L81.7357 11H87.9573C89.3153 11 90.4403 11.2472 91.3323 11.7415C92.2244 12.2358 92.892 12.9119 93.3351 13.7699C93.7783 14.6222 93.9999 15.5824 93.9999 16.6506C93.9999 17.7244 93.7755 18.6903 93.3266 19.5483C92.8834 20.4006 92.213 21.0767 91.3153 21.5767C90.4232 22.071 89.3011 22.3182 87.9488 22.3182H83.6704V20.0852H87.7102C88.5681 20.0852 89.2641 19.9375 89.7982 19.642C90.3323 19.3409 90.7244 18.9318 90.9744 18.4148C91.2244 17.8977 91.3494 17.3097 91.3494 16.6506C91.3494 15.9915 91.2244 15.4063 90.9744 14.8949C90.7244 14.3835 90.3295 13.983 89.7897 13.6932C89.2556 13.4034 88.5511 13.2585 87.6761 13.2585H84.3692V27.2373L82 27.4167Z" fill="white" />
	<path d="M55.736 13.2949V18.1909H61.496V20.4229H55.736V26.2838L62.216 25.5349V27.9188L57 28.5629L53 29.0629V20.0629V11.0629H62.216V13.2949H55.736Z" fill="white" />
	<path d="M80.078 11.0629L73.5 27.5L70.6531 27.7429L64.358 11.0629H67.286L72.23 24.9349L77.198 11.0629H80.078Z" fill="white" />
	<path d="M105.248 11V13.232H98.1681V18.152H103.688V20.384H98.1681V27.3855L95.4321 27.2865V11H105.248Z" fill="#00FF77" />
	<path d="M109.932 25.472H115.595V27.7576L107.196 27.3919V11H109.932V25.472Z" fill="#00FF77" />
	<path d="M120.432 11V28L117.696 27.8806V11H120.432Z" fill="#00FF77" />
	<path d="M131.64 19.352L137.39 29.476L134.39 28.976L129.984 21.632L126.39 28.276L123.39 27.976L128.592 19.352L123.384 11H126.456L130.248 17.096L133.8 11H136.848L131.64 19.352Z" fill="#00FF77" />
</svg>
