<svg width="133" height="56" viewBox="0 0 133 56" fill="none" xmlns="http://www.w3.org/2000/svg">
<rect x="23.1101" y="9.16876" width="4" height="33" transform="rotate(44.0424 23.1101 9.16876)" fill="#00FF77"/>
<rect x="21.767" y="13.4344" width="4" height="29" transform="rotate(-45.9576 21.767 13.4344)" fill="#00FF77"/>
<rect x="42.1938" y="29.8541" width="4" height="38.4372" transform="rotate(89.0424 42.1938 29.8541)" fill="#00FF77"/>
<rect x="28.5674" y="39.4874" width="4" height="8" transform="rotate(-45.9576 28.5674 39.4874)" fill="#00FF77"/>
<rect x="10.5967" y="22.1076" width="4" height="8" transform="rotate(-45.9576 10.5967 22.1076)" fill="#00FF77"/>
<rect x="21.7703" y="35.2801" width="4" height="18.2169" transform="rotate(-0.957634 21.7703 35.2801)" fill="#00FF77"/>
<rect x="21.1438" y="11.2019" width="4" height="18" transform="rotate(-0.957634 21.1438 11.2019)" fill="#00FF77"/>
<rect x="1.60645" y="34.2804" width="3" height="28" transform="rotate(-45.9576 1.60645 34.2804)" fill="#00FF77"/>
<rect x="43.9561" y="29.3293" width="4" height="33" transform="rotate(44.0424 43.9561 29.3293)" fill="#00FF77"/>
<rect x="1.60645" y="34.2804" width="4" height="29" transform="rotate(-45.9576 1.60645 34.2804)" fill="#00FF77"/>
<path d="M59 40H56.1546L50.0619 24.8763H52.9381L57.5773 36.1649L62.2474 24.8763H65.0928L59 40ZM77.8888 24.8763V27.2577H69.8166V31.2784H77.0537V33.5361H69.8166V37.5876H78.1362V40H67.2496V24.8763H77.8888ZM83.967 27.2577V31.4021H90.6783V33.7526H83.967V40H81.4V24.8763H91.4824L91.4515 27.2577H83.967ZM94.4957 40V24.8763H97.0627V37.5876H103.96V40H94.4957ZM106.742 24.8763H109.309V40H106.742V24.8763ZM122.449 40L118.707 34.3093H118.614L114.872 40H111.717L116.913 32.2371L112.057 24.8763H115.243L118.614 29.9794H118.707L122.109 24.8763H125.264L120.439 32.2371L125.635 40H122.449Z" fill="white"/>
</svg>
